<svg xmlns="http://www.w3.org/2000/svg" viewBox="0 0 120 120" width="120" height="120">
  <defs><linearGradient id="g" x1="0" y1="0" x2="1" y2="1">
    <stop offset="0" stop-color="#334155"/><stop offset="1" stop-color="#0f172a"/>
  </linearGradient></defs>
  <rect width="120" height="120" rx="26" fill="url(#g)"/>
  <g>
    <rect x="26" y="26" width="24" height="24" rx="4" fill="#fff"/>
    <rect x="32" y="32" width="12" height="12" rx="2" fill="#1e293b"/>
    <rect x="35" y="35" width="6" height="6" fill="#fff"/>
    <rect x="70" y="26" width="24" height="24" rx="4" fill="#fff"/>
    <rect x="76" y="32" width="12" height="12" rx="2" fill="#1e293b"/>
    <rect x="79" y="35" width="6" height="6" fill="#fff"/>
    <rect x="26" y="70" width="24" height="24" rx="4" fill="#fff"/>
    <rect x="32" y="76" width="12" height="12" rx="2" fill="#1e293b"/>
    <rect x="35" y="79" width="6" height="6" fill="#fff"/>
  </g>
  <g fill="#fff">
    <rect x="70" y="70" width="9" height="9"/>
    <rect x="85" y="70" width="9" height="9"/>
    <rect x="70" y="85" width="9" height="9"/>
    <rect x="58" y="58" width="7" height="7"/>
  </g>
</svg>
